<svg id="Layer_1" data-name="Layer 1" xmlns="http://www.w3.org/2000/svg" viewBox="0 0 238.82 31.28"><defs><style>.cls-1{fill:#fefeff;}.cls-2{fill:#ffda00;}</style></defs><path class="cls-1" d="M14.65,31.28A21.9,21.9,0,0,1,6.8,30a10.23,10.23,0,0,1-5-3.87A11.77,11.77,0,0,1,0,19.42V0H8.88V19.46a5.93,5.93,0,0,0,1.4,4.19,5.66,5.66,0,0,0,4.32,1.5A5.89,5.89,0,0,0,19,23.65a5.77,5.77,0,0,0,1.45-4.19V0h8.83V19.42a11.93,11.93,0,0,1-1.74,6.73,10.13,10.13,0,0,1-5,3.87A22,22,0,0,1,14.65,31.28Z"/><path class="cls-1" d="M35.94,30.74V0H53.81a14.42,14.42,0,0,1,6.44,1.25,8.38,8.38,0,0,1,3.69,3.43,9.93,9.93,0,0,1,1.19,4.85,9.94,9.94,0,0,1-1.32,5.12,9.22,9.22,0,0,1-3.87,3.56l6.33,12.53H56.61L51.47,19.87H44.82V30.74Zm8.88-16.69h7.43a3.64,3.64,0,0,0,2.88-1.14,4.37,4.37,0,0,0,1-3,4.73,4.73,0,0,0-.44-2.13,3.07,3.07,0,0,0-1.33-1.34A4.65,4.65,0,0,0,52.2,6H44.82Z"/><path class="cls-1" d="M70.58,30.74V0h18.6a13,13,0,0,1,5,.92,8.06,8.06,0,0,1,3.46,2.59,6.46,6.46,0,0,1,1.24,4,7.38,7.38,0,0,1-.75,3.45,6.69,6.69,0,0,1-2,2.35,9.91,9.91,0,0,1-2.88,1.41v.18a9.55,9.55,0,0,1,3.27,1.25,6.52,6.52,0,0,1,2.31,2.41,7.5,7.5,0,0,1,.86,3.76,7.63,7.63,0,0,1-1.4,4.66,8.64,8.64,0,0,1-3.87,2.84,15.33,15.33,0,0,1-5.58,1ZM79.41,12.3h7.17a3.78,3.78,0,0,0,1.85-.42,2.79,2.79,0,0,0,1.14-1.19A3.84,3.84,0,0,0,90,8.9a2.86,2.86,0,0,0-.91-2.21,3.38,3.38,0,0,0-2.36-.83H79.41Zm0,12.35h7.8a3.69,3.69,0,0,0,2.57-.87,3.42,3.42,0,0,0,1-2.66,3.33,3.33,0,0,0-.42-1.68A2.81,2.81,0,0,0,89.1,18.3a4.43,4.43,0,0,0-2-.4H79.41Z"/><path class="cls-1" d="M104.86,30.74V0h26.29V6.13h-17.4v6h15.06v6H113.75v6.49h17.71v6.13Z"/><path class="cls-1" d="M133.69,30.74l11.12-16.2L134.78,0h10.39l5.61,9H151l5.66-9h9.66l-10,14.54,11.12,16.2H157.06l-6.7-10.65h-.26l-6.64,10.65Z"/><path class="cls-2" d="M207.36,11h-5.62v4.8h5.68a2.2,2.2,0,0,0,1.57-.45,2.77,2.77,0,0,0,.45-1.88,3,3,0,0,0-.46-2A2.26,2.26,0,0,0,207.36,11Z"/><path class="cls-2" d="M232.61,0H177.37a6.21,6.21,0,0,0-6.21,6.21V25.06a6.22,6.22,0,0,0,6.21,6.22h55.24a6.22,6.22,0,0,0,6.21-6.22V6.21A6.21,6.21,0,0,0,232.61,0ZM194,23.23a3.23,3.23,0,0,1-3.19,1.62l-2,0-2.33,0-2,0a11.85,11.85,0,0,1-3.52-.42,3.6,3.6,0,0,1-2.06-1.86,9.71,9.71,0,0,1-.76-4.39l0-2.28q0-5.29.93-7.32t4.35-2l2.93-.08,1.07,0,2.62.09a4.83,4.83,0,0,1,3.69,1.23c.76.82,1.15,2.41,1.15,4.76v.32H190.9a4,4,0,0,0-.14-1.11,1,1,0,0,0-.5-.65,2.29,2.29,0,0,0-.7-.23,8.22,8.22,0,0,0-1,0l-4.52,0c-.93,0-1.51.32-1.75.95a9.67,9.67,0,0,0-.37,3.2v1.68a7.72,7.72,0,0,0,.37,2.78,1.44,1.44,0,0,0,1,1,7.12,7.12,0,0,0,1,.15c.24,0,.55,0,.92,0l3.49,0a2.44,2.44,0,0,0,1.55-.46,2.2,2.2,0,0,0,.56-1.74v-.51h-5V14.49h8.8l0,3.79A11.47,11.47,0,0,1,194,23.23Zm18.56-4.61c-.58,1-1.81,1.56-3.67,1.56h-7.1v4.5h-3.91V6.59h10.4c1.93,0,3.28.45,4,1.33s1.13,2.67,1.13,5.35S213.1,17.58,212.51,18.62ZM231,23.46a4.16,4.16,0,0,1-3.34,1.2l-5,.19L220,24.76a4.28,4.28,0,0,1-3.06-.94c-.65-.64-1-1.91-1-3.83V18.91h3.85l0,.3c0,.74.17,1.2.53,1.39a3.11,3.11,0,0,0,1.47.29l1.85,0,2.62-.11a1.91,1.91,0,0,0,1.41-.37,1.89,1.89,0,0,0,.32-1.2,1.68,1.68,0,0,0-.37-1.16,1.86,1.86,0,0,0-1.44-.44h-.63l-6.44-.19a2.71,2.71,0,0,1-2.55-1.29,8.16,8.16,0,0,1-.74-3.94,10.38,10.38,0,0,1,.47-3.5A2.79,2.79,0,0,1,218.06,7a11.3,11.3,0,0,1,3.25-.52c1.34-.06,2.25-.09,2.71-.09l2.73.06a8,8,0,0,1,2.64.36,2.4,2.4,0,0,1,1.42,1.35,7.23,7.23,0,0,1,.52,1.76,15.17,15.17,0,0,1,.12,2.17h-3.83a1.78,1.78,0,0,0-.4-1.33,1.53,1.53,0,0,0-1.1-.38l-1.89,0-3,.14a1.64,1.64,0,0,0-1,.31,1.24,1.24,0,0,0-.41,1,1.46,1.46,0,0,0,.49,1.32,2.46,2.46,0,0,0,1.34.31h.4l2.62.06,2.58,0a5,5,0,0,1,3.61,1.1c.75.73,1.13,2.2,1.13,4.41S231.65,22.67,231,23.46Z"/></svg>